HIERARCHY
ROOT RootJoint
{
    OFFSET   0.000000   0.000000   0.000000
    CHANNELS 6 Xposition Yposition Zposition Xrotation Yrotation Zrotation
    JOINT pelvis_lowerback
    {
        OFFSET   0.000000   0.093605   0.000000
        CHANNELS 3 Xrotation Yrotation Zrotation
        JOINT lowerback_torso
        {
            OFFSET   0.000000   0.100000   0.000000
            CHANNELS 3 Xrotation Yrotation Zrotation
            JOINT torso_head
            {
                OFFSET   0.000000   0.282350   0.000000
                CHANNELS 3 Xrotation Yrotation Zrotation
                End Site
                {
                    OFFSET   0.000000   0.192650   0.000000
                }
            }
            JOINT rTorso_Clavicle
            {
                OFFSET  -0.001000   0.157500   0.000000
                CHANNELS 3 Xrotation Yrotation Zrotation
                JOINT rShoulder
                {
                    OFFSET  -0.117647   0.000000   0.000000
                    CHANNELS 3 Xrotation Yrotation Zrotation
                    JOINT rElbow
                    {
                        OFFSET  -0.245000   0.000000   0.000000
                        CHANNELS 3 Xrotation Yrotation Zrotation
                        JOINT rWrist
                        {
                            OFFSET  -0.240000   0.000000   0.000000
                            CHANNELS 3 Xrotation Yrotation Zrotation
                            End Site
                            {
                                OFFSET  -0.116353  -0.002500   0.000000
                            }
                        }
                    }
                }
            }
            JOINT lTorso_Clavicle
            {
                OFFSET   0.001000   0.157500   0.000000
                CHANNELS 3 Xrotation Yrotation Zrotation
                JOINT lShoulder
                {
                    OFFSET   0.117647   0.000000   0.000000
                    CHANNELS 3 Xrotation Yrotation Zrotation
                    JOINT lElbow
                    {
                        OFFSET   0.245000   0.000000   0.000000
                        CHANNELS 3 Xrotation Yrotation Zrotation
                        JOINT lWrist
                        {
                            OFFSET   0.240000   0.000000   0.000000
                            CHANNELS 3 Xrotation Yrotation Zrotation
                            End Site
                            {
                                OFFSET   0.116353  -0.002500   0.000000
                            }
                        }
                    }
                }
            }
        }
    }
    JOINT rHip
    {
        OFFSET  -0.100000  -0.051395   0.000000
        CHANNELS 3 Xrotation Yrotation Zrotation
        JOINT rKnee
        {
            OFFSET   0.000000  -0.410000   0.000000
            CHANNELS 3 Xrotation Yrotation Zrotation
            JOINT rAnkle
            {
                OFFSET   0.000000  -0.390000   0.000000
                CHANNELS 3 Xrotation Yrotation Zrotation
                JOINT rToeJoint
                {
                    OFFSET   0.000000  -0.050000   0.130000
                    CHANNELS 3 Xrotation Yrotation Zrotation
                    End Site
                    {
                        OFFSET  -0.010000   0.002000   0.060000
                    }
                }
            }
        }
    }
    JOINT lHip
    {
        OFFSET   0.100000  -0.051395   0.000000
        CHANNELS 3 Xrotation Yrotation Zrotation
        JOINT lKnee
        {
            OFFSET   0.000000  -0.410000   0.000000
            CHANNELS 3 Xrotation Yrotation Zrotation
            JOINT lAnkle
            {
                OFFSET   0.000000  -0.390000   0.000000
                CHANNELS 3 Xrotation Yrotation Zrotation
                JOINT lToeJoint
                {
                    OFFSET   0.000000  -0.050000   0.130000
                    CHANNELS 3 Xrotation Yrotation Zrotation
                    End Site
                    {
                        OFFSET   0.010000   0.002000   0.060000
                    }
                }
            }
        }
    }
}
MOTION
Frames: 14
Frame Time:   0.008333
 -2.376719   0.925631   3.975860   0.000000   0.000000   0.000000   0.000000   0.000000   0.000000   0.000000   0.000000   0.000000   0.000000   0.000000   0.000000   0.000000   0.000000   0.000000   0.000000   0.000000   0.000000   0.000000   0.000000   0.000000   0.000000   0.000000   0.000000   0.000000   0.000000   0.000000   0.000000   0.000000   0.000000   0.000000   0.000000   0.000000   0.000000   0.000000   0.000000   0.000000   0.000000   0.000000   0.000000   0.000000   0.000000   0.000000   0.000000   0.000000   0.000000   0.000000   0.000000   0.000000   0.000000   0.000000   0.000000   0.000000   0.000000   0.000000   0.000000   0.000000   0.000000   0.000000   0.000000
 -2.376563   0.926286   3.976311  -0.671117   0.032973  -0.002461   0.657767   0.005789   0.026228   0.219817  -0.182268   0.008000  -0.139135   0.079485   0.086112   0.171801  -0.199065   0.381878   0.786379   0.267301   2.045793   0.016311   0.756273  -0.007773   0.456478  -0.349306  -2.802056   0.269397   0.285895  -0.606073   0.918779  -0.003779  -1.951953   0.017082  -0.771646   0.009487   0.494180   0.208889   2.928637   0.550061  -0.001708  -0.123297   0.772828   0.000852   0.000204  -0.914130  -0.160063   0.072088  -0.245938  -0.000115   0.000274   0.613127  -0.012219   0.103583   0.619301  -0.000544   0.000115  -0.827890   0.186591  -0.054305   0.264823  -0.000106   0.000477
 -2.376376   0.927395   3.976936  -1.377173   0.075075  -0.001550   1.271850  -0.005615   0.059182   0.495320  -0.372994   0.015971  -0.244294   0.151694   0.182009   0.341525  -0.356200   1.495001   1.547483   0.597600   4.677830   0.037784   1.495199  -0.013460   0.945821  -0.471382  -4.869212   0.540066   0.525540  -1.980985   1.818795  -0.069473  -4.529004   0.039439  -1.517988   0.016532   1.030011   0.227266   5.097577   1.129684  -0.010139  -0.346178   1.630005   0.002359   0.000364  -1.768161  -0.313438   0.135984  -0.519660  -0.000474   0.000498   1.275489  -0.015595   0.298725   1.317967  -0.001617   0.000355  -1.601620   0.364772  -0.101647   0.468458  -0.000342   0.000766
 -2.376189   0.928524   3.977681  -2.043106   0.114581   0.002767   1.824298  -0.024608   0.090219   0.747500  -0.559711   0.019771  -0.339824   0.218404   0.276598   0.501140  -0.475541   3.055551   2.276393   0.978947   7.694945   0.058796   2.192491  -0.017016   1.421520  -0.506437  -6.086063   0.798172   0.711557  -3.809851   2.695120  -0.202019  -7.512316   0.061371  -2.222768   0.021235   1.551614   0.166794   6.378313   1.683524  -0.024373  -0.647186   2.456111   0.004050   0.000359  -2.564183  -0.458747   0.192730  -0.774638  -0.000921   0.000654   1.926145  -0.010933   0.570511   1.998253  -0.002907   0.000612  -2.322855   0.533042  -0.142860   0.650426  -0.000637   0.000950
 -2.376020   0.929354   3.978523  -2.658906   0.145517   0.009746   2.321306  -0.047739   0.114271   0.966670  -0.739870   0.014696  -0.431562   0.280429   0.368118   0.651850  -0.568588   4.869542   2.973122   1.408487  10.971338   0.076833   2.846993  -0.018980   1.879625  -0.497725  -6.667306   1.042347   0.856056  -5.898720   3.537161  -0.397838 -10.723363   0.080191  -2.886316   0.024143   2.055564   0.056551   6.979832   2.202383  -0.043540  -1.007995   3.232143   0.005657   0.000189  -3.307512  -0.596125   0.243166  -1.014641  -0.001382   0.000770   2.553858   0.000563   0.905428   2.642990  -0.004217   0.000835  -2.996278   0.691671  -0.178632   0.811117  -0.000930   0.001045
 -2.375915   0.929640   3.979440  -3.226932   0.166353   0.020453   2.769997  -0.073113   0.123507   1.156147  -0.912165  -0.011704  -0.519468   0.338041   0.458294   0.794960  -0.645943   6.811452   3.636954   1.881926  14.423919   0.090883   3.459248  -0.019806   2.318875  -0.465343  -6.811524   1.272957   0.971611  -8.148961   4.309572  -0.640748 -13.938477   0.094518  -3.509946   0.025564   2.541294  -0.092032   7.058980   2.686441  -0.066749  -1.412540   3.957567   0.007029  -0.000094  -4.001894  -0.725797   0.287988  -1.240607  -0.001805   0.000856   3.156454   0.017709   1.291892   3.251032  -0.005446   0.001016  -3.625217   0.840956  -0.209654   0.953036  -0.001189   0.001072
 -2.375891   0.929201   3.980416  -3.751657   0.177432   0.033560   3.176416  -0.099653   0.115237   1.320714  -1.076192  -0.058614  -0.602886   0.391557   0.543410   0.931779  -0.715236   8.792366   4.266860   2.394740  17.992581   0.100811   4.030468  -0.019841   2.738508  -0.422493  -6.673139   1.490285   1.067811 -10.452275   5.014968  -0.918242 -17.082300   0.104209  -4.094688   0.025929   3.006679  -0.265201   6.805577   3.137626  -0.093092  -1.846816   4.635209   0.008111  -0.000436  -4.650481  -0.847947   0.327880  -1.452191  -0.002160   0.000916   3.733488   0.039570   1.719981   3.824013  -0.006528   0.001159  -4.212545   0.981313  -0.236483   1.079111  -0.001400   0.001054
 -2.375861   0.927252   3.980818  -3.878692   0.147661   0.009960   3.284442  -0.129622   0.187022   1.411427  -1.216253  -0.147506  -0.856666   0.293008   0.523143   1.155317  -0.651895  10.170559   4.959000   2.904340  21.264278   0.107661   4.678291  -0.021572   3.096800  -0.319973  -5.288936   1.812948   1.150068 -11.895238   5.550475  -1.190439 -20.230036   0.109363  -4.721699   0.026387   3.382958  -0.588896   5.504183   3.125300  -0.398010  -2.208214   5.138062   0.008032  -0.002047  -4.760548  -1.003921   0.627462  -1.364380  -0.001650   0.000353   3.926124   0.185769   2.134282   3.859268  -0.005340   0.000973  -4.519974   1.125957  -0.297137   1.287416  -0.001704   0.001322
 -2.375831   0.924048   3.980915  -3.952870   0.114376  -0.019456   3.426403  -0.155173   0.262928   1.482764  -1.338925  -0.226839  -1.113303   0.193586   0.493099   1.345864  -0.550982  11.236897   5.570654   3.434098  24.164850   0.108233   5.293304  -0.022594   3.450473  -0.155647  -4.015630   2.104184   1.205902 -12.997593   6.033549  -1.471090 -23.008596   0.108313  -5.311202   0.026299   3.740049  -0.948595   4.331197   3.056425  -0.698336  -2.524834   5.557067   0.007544  -0.003050  -4.858431  -1.153015   0.906743  -1.242330  -0.001238  -0.000241   4.017203   0.326047   2.506312   3.781344  -0.004044   0.000685  -4.810705   1.261997  -0.352736   1.483062  -0.001833   0.001476
 -2.375793   0.919736   3.980845  -4.013428   0.081999  -0.051183   3.595975  -0.171573   0.339091   1.565344  -1.445161  -0.293881  -1.350092   0.100352   0.462919   1.507126  -0.433902  12.080173   6.110014   3.965522  26.759581   0.104863   5.873227  -0.022983   3.790880   0.032002  -3.005822   2.365877   1.244769 -13.860996   6.468922  -1.752673 -25.481509   0.103536  -5.863110   0.025688   4.078423  -1.300863   3.435095   2.980372  -0.978906  -2.803243   5.931141   0.006908  -0.003627  -4.949837  -1.292724   1.167200  -1.128853  -0.000936  -0.000654   4.047857   0.455884   2.835190   3.671623  -0.002957   0.000430  -5.083655   1.388926  -0.404012   1.660552  -0.001824   0.001531
 -2.375717   0.919563   3.981255  -4.253240  -0.031643   0.076782   3.850516  -0.151454   0.285220   1.729492  -1.516683  -0.408936  -1.556028   0.014417   0.429938   1.644511  -0.295819  13.077029   6.581319   4.498984  29.211350   0.100838   6.411280  -0.022592   4.115807   0.176744  -2.261015   2.603270   1.272082 -14.832788   6.859948  -2.031189 -27.788289   0.098044  -6.367056   0.024518   4.395062  -1.555357   2.823542   2.924803  -1.294093  -3.029361   6.470169   0.005677  -0.005048  -4.733514  -1.467779   1.516284  -0.925097  -0.001192  -0.001641   4.144641   0.658462   2.719119   3.995511  -0.002394   0.000661  -4.800505   1.569400  -0.602031   1.896694  -0.001095   0.001817
 -2.375752   0.919591   3.981807  -4.390503  -0.042528   0.176759   4.004253  -0.166758   0.274840   1.842799  -1.604468  -0.506433  -1.746090  -0.067329   0.393851   1.787004  -0.195552  13.857722   7.009638   5.000905  31.478920   0.094933   6.916953  -0.021687   4.425315   0.353138  -1.455871   2.833426   1.313886 -15.597179   7.220772  -2.297174 -29.924270   0.091142  -6.843393   0.022812   4.698150  -1.841835   2.160366   2.917635  -1.461571  -3.177073   6.835285   0.004584  -0.004660  -4.922124  -1.499325   1.767804  -0.895853  -0.001008  -0.001368   4.226167   0.783418   2.634845   4.187810  -0.001925   0.000746  -4.857419   1.681001  -0.673439   2.097718  -0.000765   0.001869
 -2.375872   0.919631   3.982338  -4.470770   0.010574   0.276303   4.134500  -0.188377   0.274489   1.924870  -1.694970  -0.588828  -1.931501  -0.143799   0.360995   1.922637  -0.111379  14.494930   7.396328   5.472197  33.537625   0.087803   7.385950  -0.020595   4.718214   0.515392  -0.750883   3.046429   1.354651 -16.217122   7.550280  -2.549460 -31.858309   0.083351  -7.287179   0.020847   4.985097  -2.119084   1.597769   2.899691  -1.610641  -3.304565   7.120031   0.003686  -0.003994  -5.079742  -1.531319   1.983987  -0.877668  -0.000837  -0.001116   4.283555   0.893356   2.562864   4.296760  -0.001548   0.000764  -4.951805   1.781665  -0.732107   2.255244  -0.000547   0.001869
 -2.376184   0.919740   3.982762  -4.457253   0.047437   0.336269   4.261005  -0.182995   0.218474   1.919528  -1.711857  -0.577244  -2.073617  -0.245114   0.348143   2.013388  -0.148718  14.751433   7.710380   5.914366  35.143718   0.078822   7.866000  -0.019203   4.936034   0.803516   0.553434   3.238950   1.458986 -16.413303   7.702256  -2.790247 -33.470339   0.077162  -7.909203   0.018705   5.228021  -2.360680   0.509625   2.878985  -1.781882  -3.372428   7.194271   0.002940  -0.003285  -5.184130  -1.534672   2.136090  -0.686646  -0.000917  -0.001118   4.317449   1.001957   2.538304   4.242548  -0.001229   0.000539  -4.973213   1.859260  -0.764574   2.392908  -0.000425   0.001767
